HIERARCHY
ROOT Hips
{
	OFFSET 0.000000 100.481300 0.000000
	CHANNELS 6 Xposition Yposition Zposition Xrotation Yrotation Zrotation
	JOINT Spine
	{
		OFFSET -0.279200 12.230698 -2.892100
		CHANNELS 3 Xrotation Yrotation Zrotation
		JOINT Spine1
		{
			OFFSET -0.325700 14.269203 -3.374200
			CHANNELS 3 Xrotation Yrotation Zrotation
			JOINT Spine2
			{
				OFFSET -0.372300 16.307602 -0.352600
				CHANNELS 3 Xrotation Yrotation Zrotation
				JOINT Neck
				{
					OFFSET -0.418800 17.814194 8.416900
					CHANNELS 3 Xrotation Yrotation Zrotation
					JOINT Head
					{
						OFFSET 0.000000 7.031097 3.806800
						CHANNELS 3 Xrotation Yrotation Zrotation
						JOINT HeadTop_End
						{
							OFFSET 0.000000 24.646606 12.978600
							CHANNELS 3 Xrotation Yrotation Zrotation
							End Site
							{
								OFFSET 0.000000 27.854965 0.000000
							}
						}
					}
				}
				JOINT LeftShoulder
				{
					OFFSET 16.952999 14.495407 -7.737500
					CHANNELS 3 Xrotation Yrotation Zrotation
					JOINT LeftArm
					{
						OFFSET 9.308998 -2.777710 0.208600
						CHANNELS 3 Xrotation Yrotation Zrotation
						JOINT LeftForeArm
						{
							OFFSET 29.972298 0.000000 0.000000
							CHANNELS 3 Xrotation Yrotation Zrotation
							JOINT LeftHand
							{
								OFFSET 26.026505 0.000000 0.000000
								CHANNELS 3 Xrotation Yrotation Zrotation
								JOINT LeftHandThumb1
								{
									OFFSET 12.240501 -7.147949 9.207150
									CHANNELS 3 Xrotation Yrotation Zrotation
									JOINT LeftHandThumb2
									{
										OFFSET 4.138618 -2.389435 2.389433
										CHANNELS 3 Xrotation Yrotation Zrotation
										JOINT LeftHandThumb3
										{
											OFFSET 2.726913 -1.574387 1.574386
											CHANNELS 3 Xrotation Yrotation Zrotation
											JOINT LeftHandThumb4
											{
												OFFSET 3.941010 -2.275345 2.275342
												CHANNELS 3 Xrotation Yrotation Zrotation
												End Site
												{
													OFFSET -0.005798 5.087799 0.009903
												}
											}
										}
									}
								}
								JOINT LeftHandIndex1
								{
									OFFSET 24.424698 -1.985611 5.953459
									CHANNELS 3 Xrotation Yrotation Zrotation
									JOINT LeftHandIndex2
									{
										OFFSET 6.426697 0.000000 0.000000
										CHANNELS 3 Xrotation Yrotation Zrotation
										JOINT LeftHandIndex3
										{
											OFFSET 5.337898 0.000000 0.000000
											CHANNELS 3 Xrotation Yrotation Zrotation
											JOINT LeftHandIndex4
											{
												OFFSET 4.409401 0.000000 0.000000
												CHANNELS 3 Xrotation Yrotation Zrotation
												End Site
												{
													OFFSET 0.000000 4.409363 0.014373
												}
											}
										}
									}
								}
								JOINT LeftHandMiddle1
								{
									OFFSET 23.810104 0.000000 0.000000
									CHANNELS 3 Xrotation Yrotation Zrotation
									JOINT LeftHandMiddle2
									{
										OFFSET 7.176498 0.000000 0.000000
										CHANNELS 3 Xrotation Yrotation Zrotation
										JOINT LeftHandMiddle3
										{
											OFFSET 6.774902 0.000000 0.000000
											CHANNELS 3 Xrotation Yrotation Zrotation
											JOINT LeftHandMiddle4
											{
												OFFSET 5.403328 0.000000 0.000000
												CHANNELS 3 Xrotation Yrotation Zrotation
												End Site
												{
													OFFSET -0.027702 5.403244 0.017414
												}
											}
										}
									}
								}
								JOINT LeftHandRing1
								{
									OFFSET 22.908401 -0.839279 -6.020567
									CHANNELS 3 Xrotation Yrotation Zrotation
									JOINT LeftHandRing2
									{
										OFFSET 6.337502 0.000000 0.000000
										CHANNELS 3 Xrotation Yrotation Zrotation
										JOINT LeftHandRing3
										{
											OFFSET 5.779297 0.000000 0.000000
											CHANNELS 3 Xrotation Yrotation Zrotation
											JOINT LeftHandRing4
											{
												OFFSET 4.965698 0.000000 0.000000
												CHANNELS 3 Xrotation Yrotation Zrotation
												End Site
												{
													OFFSET 0.000000 4.965668 0.016186
												}
											}
										}
									}
								}
								JOINT LeftHandPinky1
								{
									OFFSET 20.037003 -1.530319 -10.950146
									CHANNELS 3 Xrotation Yrotation Zrotation
									JOINT LeftHandPinky2
									{
										OFFSET 5.254700 0.000000 0.000000
										CHANNELS 3 Xrotation Yrotation Zrotation
										JOINT LeftHandPinky3
										{
											OFFSET 4.810204 0.000000 0.000000
											CHANNELS 3 Xrotation Yrotation Zrotation
											JOINT LeftHandPinky4
											{
												OFFSET 3.647202 0.000000 0.000000
												CHANNELS 3 Xrotation Yrotation Zrotation
												End Site
												{
													OFFSET 0.000000 3.647186 0.011889
												}
											}
										}
									}
								}
							}
						}
					}
				}
				JOINT RightShoulder
				{
					OFFSET -15.141001 14.495407 -7.737500
					CHANNELS 3 Xrotation Yrotation Zrotation
					JOINT RightArm
					{
						OFFSET -9.308998 -2.777710 0.208500
						CHANNELS 3 Xrotation Yrotation Zrotation
						JOINT RightForeArm
						{
							OFFSET -29.972300 0.000000 0.000000
							CHANNELS 3 Xrotation Yrotation Zrotation
							JOINT RightHand
							{
								OFFSET -26.026505 0.000000 0.000000
								CHANNELS 3 Xrotation Yrotation Zrotation
								JOINT RightHandThumb1
								{
									OFFSET -12.240601 -7.148026 9.207092
									CHANNELS 3 Xrotation Yrotation Zrotation
									JOINT RightHandThumb2
									{
										OFFSET -4.138618 -2.389435 2.389433
										CHANNELS 3 Xrotation Yrotation Zrotation
										JOINT RightHandThumb3
										{
											OFFSET -2.726974 -1.574417 1.574421
											CHANNELS 3 Xrotation Yrotation Zrotation
											JOINT RightHandThumb4
											{
												OFFSET -3.941010 -2.275345 2.275343
												CHANNELS 3 Xrotation Yrotation Zrotation
												End Site
												{
													OFFSET 0.005814 5.087799 0.009927
												}
											}
										}
									}
								}
								JOINT RightHandIndex1
								{
									OFFSET -24.424698 -1.985657 5.953444
									CHANNELS 3 Xrotation Yrotation Zrotation
									JOINT RightHandIndex2
									{
										OFFSET -6.426697 0.000000 0.000000
										CHANNELS 3 Xrotation Yrotation Zrotation
										JOINT RightHandIndex3
										{
											OFFSET -5.337898 0.000000 0.000000
											CHANNELS 3 Xrotation Yrotation Zrotation
											JOINT RightHandIndex4
											{
												OFFSET -4.409401 0.000000 0.000000
												CHANNELS 3 Xrotation Yrotation Zrotation
												End Site
												{
													OFFSET 0.000000 4.409363 0.014408
												}
											}
										}
									}
								}
								JOINT RightHandMiddle1
								{
									OFFSET -23.810097 0.000000 0.000000
									CHANNELS 3 Xrotation Yrotation Zrotation
									JOINT RightHandMiddle2
									{
										OFFSET -7.176498 0.000000 0.000000
										CHANNELS 3 Xrotation Yrotation Zrotation
										JOINT RightHandMiddle3
										{
											OFFSET -6.774902 0.000000 0.000000
											CHANNELS 3 Xrotation Yrotation Zrotation
											JOINT RightHandMiddle4
											{
												OFFSET -5.403328 0.000000 0.000000
												CHANNELS 3 Xrotation Yrotation Zrotation
												End Site
												{
													OFFSET 0.027702 5.403244 0.017457
												}
											}
										}
									}
								}
								JOINT RightHandRing1
								{
									OFFSET -22.908302 -0.839325 -6.020576
									CHANNELS 3 Xrotation Yrotation Zrotation
									JOINT RightHandRing2
									{
										OFFSET -6.337502 0.000000 0.000000
										CHANNELS 3 Xrotation Yrotation Zrotation
										JOINT RightHandRing3
										{
											OFFSET -5.779297 0.000000 0.000000
											CHANNELS 3 Xrotation Yrotation Zrotation
											JOINT RightHandRing4
											{
												OFFSET -4.965698 0.000000 0.000000
												CHANNELS 3 Xrotation Yrotation Zrotation
												End Site
												{
													OFFSET 0.000000 4.965668 0.016226
												}
											}
										}
									}
								}
								JOINT RightHandPinky1
								{
									OFFSET -20.037003 -1.530334 -10.950259
									CHANNELS 3 Xrotation Yrotation Zrotation
									JOINT RightHandPinky2
									{
										OFFSET -5.254700 0.000000 0.000000
										CHANNELS 3 Xrotation Yrotation Zrotation
										JOINT RightHandPinky3
										{
											OFFSET -4.810204 0.000000 0.000000
											CHANNELS 3 Xrotation Yrotation Zrotation
											JOINT RightHandPinky4
											{
												OFFSET -3.647202 0.000000 0.000000
												CHANNELS 3 Xrotation Yrotation Zrotation
												End Site
												{
													OFFSET 0.000000 3.647186 0.011917
												}
											}
										}
									}
								}
							}
						}
					}
				}
			}
		}
	}
	JOINT LeftUpLeg
	{
		OFFSET 15.427100 -6.655098 0.678600
		CHANNELS 3 Xrotation Yrotation Zrotation
		JOINT LeftLeg
		{
			OFFSET 4.081073 -39.591068 13.024000
			CHANNELS 3 Xrotation Yrotation Zrotation
			JOINT LeftFoot
			{
				OFFSET -4.081074 -37.707932 -15.979700
				CHANNELS 3 Xrotation Yrotation Zrotation
				JOINT LeftToeBase
				{
					OFFSET 5.346399 -15.068900 20.645000
					CHANNELS 3 Xrotation Yrotation Zrotation
					JOINT LeftToe_End
					{
						OFFSET 2.754700 0.931300 11.300900
						CHANNELS 3 Xrotation Yrotation Zrotation
						End Site
						{
							OFFSET 0.000000 11.669021 0.000000
						}
					}
				}
			}
		}
	}
	JOINT RightUpLeg
	{
		OFFSET -15.569500 -6.655098 0.678600
		CHANNELS 3 Xrotation Yrotation Zrotation
		JOINT RightLeg
		{
			OFFSET -4.081825 -39.591045 13.023800
			CHANNELS 3 Xrotation Yrotation Zrotation
			JOINT RightFoot
			{
				OFFSET 4.081824 -37.707954 -15.979600
				CHANNELS 3 Xrotation Yrotation Zrotation
				JOINT RightToeBase
				{
					OFFSET -5.346400 -15.068900 20.645000
					CHANNELS 3 Xrotation Yrotation Zrotation
					JOINT RightToe_End
					{
						OFFSET -2.754700 0.931300 11.300900
						CHANNELS 3 Xrotation Yrotation Zrotation
						End Site
						{
							OFFSET 0.000000 11.669021 0.000000
						}
					}
				}
			}
		}
	}
}
MOTION
Frames: 4
Frame Time: 0.033333
-0.975994 75.412880 -5.742428 -22.212675 19.265069 -2.937634 30.020433 -4.775872 14.226730 10.694398 -7.907901 0.938138 9.964484 -7.876405 -0.075263 -14.478206 -1.086429 4.078892 1.546629 4.285841 3.583867 -0.000000 -0.000000 -0.000000 -10.197980 -18.460949 3.352308 -54.627351 -44.116595 -62.186209 -97.659534 6.354342 -54.227228 -52.478611 8.472664 11.094804 0.699106 9.503342 -2.418112 5.975214 12.647530 1.348334 -23.873594 -17.664290 1.604910 0.000001 0.000001 -0.000001 3.424374 15.792893 -3.864283 0.512096 2.585477 -25.832926 0.512143 2.585494 -25.832947 0.000001 -0.000001 0.000000 -0.726513 7.394692 -20.667703 -5.039543 4.799008 -23.902792 -5.176109 5.000607 -24.726912 -0.000000 0.000002 -0.000001 -9.125444 5.393917 -23.341734 -7.022613 5.823410 -23.035501 -7.221694 6.072883 -23.824916 0.000000 0.000002 -0.000000 -14.595093 -1.422122 -23.232668 -8.981592 6.949415 -21.863746 -9.243292 7.248560 -22.606570 -0.000001 0.000000 0.000000 9.295133 -6.536892 2.347868 -16.737175 48.027100 46.782964 13.252135 116.393786 -20.906154 -21.686467 14.871579 -38.383857 -2.009283 -0.938263 -6.975866 -4.495150 -22.198052 -2.715739 12.087906 -39.917545 -28.108233 -0.000001 0.000001 0.000003 0.052197 -2.478516 2.412190 0.000010 -0.000020 0.000035 0.996314 -3.070100 40.237887 0.000000 0.000001 -0.000005 -10.093759 -13.323345 35.651446 -8.057708 -10.136674 47.057179 -8.587525 -13.371571 58.686078 0.000001 -0.000000 0.000000 -26.617338 -26.755938 42.317059 -11.021653 -11.497543 41.664256 -9.760923 -9.006373 34.602794 -0.000000 -0.000001 0.000000 -41.129886 -23.757818 43.479509 -6.317040 -3.952418 14.753820 -16.707116 -20.465933 52.468858 -0.000001 0.000002 -0.000001 -13.536801 3.508844 25.089735 101.691053 -3.700331 -6.845946 -31.057932 1.405103 2.995077 1.961784 -0.157221 2.559309 -0.000004 -0.000003 -0.000001 -6.945592 -19.392394 15.289889 57.343174 0.871724 -17.535833 -23.798601 1.384179 1.726447 -3.185534 -0.932867 -0.577959 -0.000000 -0.000002 -0.000000 
10.993881 77.905991 6.271782 -22.877609 15.010394 -4.149158 33.566890 -4.348602 13.111513 9.957980 -4.435171 0.470344 9.727327 -4.225039 -0.466784 -20.066700 -0.121519 1.619357 3.643486 0.488415 6.314000 -0.000000 0.000000 -0.000000 -9.516629 -17.865806 2.811938 -61.897367 -46.044778 -67.562052 -99.203778 7.138869 -49.866774 -49.701371 11.131108 10.874467 0.699106 9.503343 -2.418111 5.975215 12.647530 1.348333 -23.873593 -17.664292 1.604909 0.000002 0.000001 -0.000000 3.424374 15.792893 -3.864282 0.512097 2.585475 -25.832921 0.512141 2.585496 -25.832954 -0.000001 0.000000 -0.000000 -0.726513 7.394691 -20.667703 -5.039540 4.799006 -23.902795 -5.176107 5.000605 -24.726917 0.000000 0.000001 -0.000000 -9.125448 5.393920 -23.341738 -7.022614 5.823406 -23.035499 -7.221696 6.072880 -23.824919 -0.000000 0.000002 -0.000001 -14.595093 -1.422121 -23.232668 -8.981596 6.949410 -21.863746 -9.243293 7.248563 -22.606570 -0.000000 -0.000003 0.000001 8.702665 -6.300485 2.155048 -15.108524 46.130066 44.419818 13.698771 118.227405 -20.965826 -20.285851 14.934697 -40.976009 -2.009280 -0.938260 -6.975866 -4.495152 -22.198050 -2.715738 12.087904 -39.917545 -28.108235 0.000000 0.000003 0.000002 0.052200 -2.478515 2.412192 0.000010 -0.000022 0.000036 0.996314 -3.070096 40.237887 -0.000001 0.000001 -0.000000 -10.093756 -13.323344 35.651443 -8.057706 -10.136670 47.057179 -8.587529 -13.371572 58.686078 0.000000 -0.000000 0.000003 -26.617334 -26.755939 42.317062 -11.021654 -11.497549 41.664253 -9.760919 -9.006371 34.602790 0.000001 -0.000000 0.000000 -41.129890 -23.757819 43.479512 -6.317037 -3.952419 14.753818 -16.707116 -20.465933 52.468858 0.000000 -0.000002 0.000000 -30.031539 -3.544572 30.238337 97.224847 -3.004837 -6.651317 -15.542073 3.910265 -1.231361 0.433912 -0.157639 2.559276 -0.000001 -0.000002 -0.000001 9.440892 -14.686988 6.779208 49.889355 9.158561 -12.390194 -33.870529 2.925469 0.741435 -2.675376 -0.860113 0.829014 -0.000000 -0.000000 -0.000000 
22.205824 83.633575 17.999069 -23.738128 10.379950 -4.995676 39.316184 -4.094391 9.192850 8.747218 -1.169189 0.908843 9.285304 -0.260171 0.300384 -27.733983 1.307543 -2.416094 6.832328 -3.096621 10.070465 -0.000001 -0.000000 0.000000 -6.866626 -18.016951 2.912998 -69.847707 -46.236945 -71.402080 -101.124093 8.608034 -47.109877 -44.886504 12.836818 10.536464 0.699107 9.503343 -2.418112 5.975215 12.647531 1.348331 -23.873596 -17.664295 1.604907 0.000002 -0.000002 -0.000002 3.424374 15.792897 -3.864283 0.512097 2.585478 -25.832923 0.512141 2.585495 -25.832950 0.000001 0.000000 0.000001 -0.726512 7.394696 -20.667703 -5.039540 4.799009 -23.902792 -5.176107 5.000605 -24.726917 0.000000 0.000002 -0.000001 -9.125446 5.393919 -23.341734 -7.022612 5.823411 -23.035501 -7.221694 6.072884 -23.824917 0.000000 0.000000 -0.000000 -14.595090 -1.422121 -23.232670 -8.981595 6.949410 -21.863750 -9.243293 7.248561 -22.606572 -0.000001 0.000000 -0.000000 8.297321 -5.856108 1.992918 -14.509028 44.011990 42.665033 15.172944 119.450761 -22.022765 -18.439252 16.136008 -42.018081 -2.009281 -0.938261 -6.975866 -4.495154 -22.198055 -2.715739 12.087903 -39.917552 -28.108233 0.000000 -0.000001 0.000002 0.052202 -2.478514 2.412190 0.000009 -0.000020 0.000036 0.996313 -3.070096 40.237891 -0.000000 -0.000000 0.000002 -10.093758 -13.323343 35.651443 -8.057710 -10.136674 47.057179 -8.587530 -13.371573 58.686078 -0.000000 0.000001 -0.000002 -26.617336 -26.755938 42.317062 -11.021653 -11.497545 41.664253 -9.760920 -9.006373 34.602794 -0.000001 0.000000 -0.000004 -41.129890 -23.757821 43.479506 -6.317042 -3.952424 14.753816 -16.707121 -20.465934 52.468858 -0.000000 -0.000003 0.000001 -30.847918 -4.917416 31.856094 79.990504 0.555627 -6.072220 -1.476814 7.536996 -6.832701 -0.560546 -0.157534 2.648355 0.000002 0.000001 -0.000000 19.453145 -3.130993 -1.158873 41.584138 11.426909 -7.568879 -18.854117 -0.629974 5.387222 -24.942504 -3.702053 4.453115 0.000000 -0.000000 0.000000 
32.541161 87.163162 28.818851 -24.993088 5.685304 -4.368682 45.034804 -3.932353 3.747502 7.380015 1.302798 1.509168 7.692613 2.525880 0.903054 -28.693481 2.504486 -3.110041 6.305204 -6.180533 9.592990 -0.000000 0.000000 -0.000000 -4.102089 -18.810664 3.534000 -74.311181 -46.620494 -71.835190 -101.420338 8.769312 -46.166925 -43.833456 13.535142 10.052879 0.699107 9.503345 -2.418112 5.975216 12.647530 1.348333 -23.873593 -17.664292 1.604908 -0.000000 -0.000003 -0.000002 3.424375 15.792895 -3.864282 0.512098 2.585480 -25.832925 0.512143 2.585496 -25.832952 0.000000 0.000002 0.000003 -0.726512 7.394692 -20.667703 -5.039540 4.799012 -23.902797 -5.176108 5.000607 -24.726919 -0.000000 -0.000001 -0.000002 -9.125444 5.393920 -23.341741 -7.022615 5.823412 -23.035499 -7.221694 6.072880 -23.824916 -0.000001 -0.000001 0.000001 -14.595091 -1.422121 -23.232668 -8.981592 6.949413 -21.863750 -9.243293 7.248559 -22.606569 -0.000000 0.000001 -0.000000 8.059521 -5.293563 1.865785 -14.102088 42.622016 41.376596 16.623161 120.438816 -23.108883 -16.626765 16.852670 -43.150970 -2.009282 -0.938261 -6.975867 -4.495155 -22.198055 -2.715740 12.087906 -39.917548 -28.108235 0.000000 -0.000006 -0.000001 0.052201 -2.478517 2.412191 0.000010 -0.000020 0.000036 0.996317 -3.070096 40.237891 0.000000 -0.000001 -0.000002 -10.093757 -13.323346 35.651443 -8.057710 -10.136675 47.057179 -8.587527 -13.371572 58.686078 -0.000000 -0.000002 -0.000002 -26.617336 -26.755939 42.317059 -11.021658 -11.497542 41.664256 -9.760923 -9.006372 34.602794 -0.000001 0.000002 0.000000 -41.129890 -23.757819 43.479509 -6.317036 -3.952422 14.753818 -16.707116 -20.465940 52.468854 -0.000001 0.000002 -0.000004 -26.696496 -1.862856 32.445202 59.942198 5.947955 -3.401303 1.673854 9.369538 -11.099461 -0.579004 -0.159426 2.232128 -0.000000 -0.000001 0.000000 16.841392 4.572395 -4.839528 43.916962 8.551942 -9.638653 19.200401 4.599536 7.336783 -50.715678 -8.949271 7.896920 -0.000000 0.000000 -0.000000 
